<?xml version="1.0" encoding="utf-8"?>
<!-- Generator: Adobe Illustrator 24.1.3, SVG Export Plug-In . SVG Version: 6.00 Build 0)  -->
<svg version="1.1" id="_x2014_ÎÓÈ_x5F_1" xmlns="http://www.w3.org/2000/svg" xmlns:xlink="http://www.w3.org/1999/xlink"
	 x="0px" y="0px" viewBox="0 0 500 500" style="enable-background:new 0 0 500 500;" xml:space="preserve">
<style type="text/css">
	.st0{opacity:0.4;}
	.st1{fill:none;stroke:#374249;stroke-width:10;stroke-miterlimit:10;}
	.st2{opacity:0.4;fill:none;stroke:#374249;stroke-width:10;stroke-miterlimit:10;}
	.st3{opacity:0.4;fill:#374249;}
</style>
<g id="XMLID_26_" class="st0">
	<line id="XMLID_31_" class="st1" x1="192.07" y1="185.89" x2="128.34" y2="185.89"/>
	<line id="XMLID_30_" class="st1" x1="166.57" y1="203.89" x2="103.07" y2="203.89"/>
</g>
<g id="XMLID_32_" class="st0">
	<line id="XMLID_5_" class="st1" x1="316.57" y1="155.39" x2="380.3" y2="155.39"/>
	<line id="XMLID_27_" class="st1" x1="298.57" y1="173.39" x2="332.57" y2="173.39"/>
	<line id="XMLID_29_" class="st1" x1="342.07" y1="173.39" x2="405.57" y2="173.39"/>
	<line id="XMLID_28_" class="st1" x1="325.07" y1="191.39" x2="371.57" y2="191.39"/>
</g>
<g id="XMLID_35_" class="st0">
	<line id="XMLID_37_" class="st1" x1="380.3" y1="222.63" x2="398.23" y2="240.56"/>
	<line id="XMLID_36_" class="st1" x1="380.3" y1="240.56" x2="398.23" y2="222.63"/>
</g>
<circle id="XMLID_34_" class="st2" cx="103.07" cy="257.99" r="11.5"/>
<circle id="XMLID_33_" class="st3" cx="166.57" cy="120.06" r="8.13"/>
<path class="st3" d="M462.13,215.58c-8.15-50.38-34.08-96.54-73-129.97c-39.35-33.8-89.62-52.41-141.55-52.41
	c-58.06,0-112.64,22.61-153.69,63.66c-41.05,41.05-63.66,95.64-63.66,153.69c0,47,14.76,91.73,42.67,129.35l3.45,4.65l88.32-88.32
	l29.28,29.28l14.74-33.18h10.1l26.68,26.68l26.68-26.68h14.31l14.74,33.18l29.28-29.28l88.33,88.33l3.45-4.66
	c27.92-37.63,42.67-82.36,42.67-129.36C464.93,238.83,463.98,227.07,462.13,215.58z M268,282.35l-22.53,22.53l-22.53-22.53h-9.8
	l34.44-77.52l34.44,77.52H268z M417.62,369.25l-87.14-87.15l-26.06,26.06L247.57,180.2l-56.85,127.96l-26.06-26.06l-87.14,87.14
	c-24.43-34.89-37.31-75.79-37.31-118.68c0-114.34,93.02-207.36,207.36-207.36c49.55,0,97.51,17.75,135.04,49.99
	c37.14,31.9,61.87,75.93,69.64,123.98c1.77,10.96,2.67,22.19,2.67,33.38C454.93,293.45,442.05,334.36,417.62,369.25z"/>
<g id="XMLID_40_" class="st0">
	<path id="XMLID_38_" class="st1" d="M120.76,372.48c0,0,21.26-21.26,42.86-42.86c21.59,21.59,42.85,42.85,42.86,42.86"/>
	<path id="XMLID_39_" class="st1" d="M120.76,415.34c0,0,21.26-21.26,42.86-42.86c21.59,21.59,42.85,42.85,42.86,42.86"/>
	<line id="XMLID_3_" class="st1" x1="163.61" y1="329.62" x2="163.61" y2="441.94"/>
</g>
<g id="XMLID_42_" class="st0">
	<path id="XMLID_45_" class="st1" d="M374.38,372.48c0,0-21.26-21.26-42.86-42.86c-21.59,21.59-42.85,42.85-42.86,42.86"/>
	<path id="XMLID_44_" class="st1" d="M374.38,415.34c0,0-21.26-21.26-42.86-42.86c-21.59,21.59-42.85,42.85-42.86,42.86"/>
	<line id="XMLID_43_" class="st1" x1="331.53" y1="329.62" x2="331.53" y2="441.94"/>
</g>
<g id="XMLID_46_" class="st0">
	<path id="XMLID_49_" class="st1" d="M290.43,392.48c0,0-21.26-21.26-42.86-42.86c-21.59,21.59-42.85,42.85-42.86,42.86"/>
	<path id="XMLID_48_" class="st1" d="M290.43,435.34c0,0-21.26-21.26-42.86-42.86c-21.59,21.59-42.85,42.85-42.86,42.86"/>
	<line id="XMLID_47_" class="st1" x1="247.57" y1="349.62" x2="247.57" y2="461.94"/>
</g>
</svg>
